<mxfile host="app.diagrams.net" modified="2023-08-21T13:39:05.423Z" agent="Mozilla/5.0 (Macintosh; Intel Mac OS X 10_15_7) AppleWebKit/537.36 (KHTML, like Gecko) Chrome/114.0.0.0 Safari/537.36" version="21.6.8" etag="u5TVOnuHLVEkks6QadAW" type="github">
  <diagram name="第 1 页" id="MH501CcwdZWRll74R0n9">
    <mxGraphModel>
      <root>
        <mxCell id="0" />
        <mxCell id="1" parent="0" />
      </root>
    </mxGraphModel>
  </diagram>
</mxfile>
